<svg width="15" height="10" viewBox="0 0 15 10" fill="none" xmlns="http://www.w3.org/2000/svg">
<path d="M10.3029 5.02109L14.1475 1.65691V8.34687L10.3029 5.02109ZM5.34897 5.59081L6.69903 6.77117C6.91091 6.95247 7.18717 7.06201 7.48906 7.06201H7.49969H7.49906H7.50781C7.81033 7.06201 8.08659 6.95184 8.30097 6.76928L8.2991 6.77054L9.6492 5.59018L13.7531 9.1401H1.24693L5.34897 5.59081ZM1.2413 0.8593H13.7606L7.7472 6.11961C7.67959 6.17347 7.59589 6.20275 7.50969 6.20271H7.50094H7.50156H7.49281C7.4063 6.20282 7.32233 6.17329 7.25468 6.11898L7.2553 6.11961L1.2413 0.8593ZM0.85316 1.65628L4.69707 5.02046L0.85316 8.34435V1.65628ZM14.3537 0.11961C14.2037 0.04407 14.0275 0 13.8406 0H1.16192C0.98077 4e-05 0.8021 0.0425 0.64003 0.12402L0.6469 0.12087C0.45288 0.21726 0.28948 0.36637 0.17517 0.55137C0.0608499 0.73636 0.00018 0.94987 0 1.16777V8.83034C0.00033 9.1405 0.12279 9.4378 0.3405 9.657C0.55822 9.8763 0.8534 9.9997 1.1613 10H13.8387C14.1466 9.9997 14.4418 9.8763 14.6595 9.657C14.8772 9.4378 14.9997 9.1405 15 8.83034V1.16777C15 0.7101 14.7381 0.3135 14.3568 0.12276L14.35 0.11961H14.3537Z" fill="white"/>
</svg>
