<svg width="27" height="47" viewBox="0 0 27 47" fill="none" xmlns="http://www.w3.org/2000/svg">
<path d="M25.7933 4.67037L25.8006 4.66201L25.8073 4.65313C26.5372 3.68211 26.4559 2.30402 25.5647 1.42425C24.5864 0.458584 23.0019 0.458585 22.0236 1.42425L1.43534 21.7468L1.42751 21.7546L1.42027 21.7628L1.20669 22.0071L1.19937 22.0154L1.1927 22.0243C0.462805 22.9953 0.544067 24.3734 1.43534 25.2532L22.0236 45.5758L22.0314 45.5835L22.0397 45.5906L22.2871 45.8014L22.2956 45.8086L22.3045 45.8151C23.2848 46.5331 24.6749 46.454 25.5647 45.5758L25.5725 45.568L25.5797 45.5597L25.7933 45.3155L25.8006 45.3072L25.8073 45.2983C26.5372 44.3273 26.4559 42.9492 25.5647 42.0694L6.75351 23.5L25.5647 4.93059L25.5725 4.92286L25.5797 4.91458L25.7933 4.67037Z" fill="white" stroke="white" stroke-width="0.6"/>
</svg>
