<svg width="14" height="18" viewBox="0 0 14 18" fill="none" xmlns="http://www.w3.org/2000/svg">
<path fill-rule="evenodd" clip-rule="evenodd" d="M7.27585 17.4993L7.91835 16.7754C8.6474 15.9404 9.30313 15.1482 9.88658 14.3947L10.3682 13.7594C12.3792 11.0499 13.3852 8.89939 13.3852 7.30994C13.3852 3.91722 10.6502 1.16699 7.27585 1.16699C3.90145 1.16699 1.1665 3.91722 1.1665 7.30994C1.1665 8.89939 2.17251 11.0499 4.1835 13.7594L4.66512 14.3947C5.49746 15.4612 6.36827 16.4971 7.27585 17.5003V17.4993Z" stroke="white" stroke-width="0.8" stroke-linecap="round" stroke-linejoin="round"/>
<path d="M7.27578 9.82159C8.68166 9.82159 9.82135 8.6819 9.82135 7.27603C9.82135 5.87015 8.68166 4.73047 7.27578 4.73047C5.86991 4.73047 4.73022 5.87015 4.73022 7.27603C4.73022 8.6819 5.86991 9.82159 7.27578 9.82159Z" stroke="white" stroke-width="0.8" stroke-linecap="round" stroke-linejoin="round"/>
</svg>
