<svg width="27" height="47" viewBox="0 0 27 47" fill="none" xmlns="http://www.w3.org/2000/svg">
<path d="M1.20668 42.3296L1.19937 42.338L1.1927 42.3469C0.462804 43.3179 0.544065 44.696 1.43534 45.5758C2.41362 46.5414 3.99814 46.5414 4.97643 45.5758L25.5647 25.2532L25.5725 25.2454L25.5797 25.2372L25.7933 24.9929L25.8006 24.9846L25.8073 24.9757C26.5372 24.0047 26.4559 22.6266 25.5647 21.7468L4.97643 1.42425L4.96861 1.41653L4.96026 1.40942L4.71285 1.19859L4.70444 1.19142L4.69553 1.18489C3.71524 0.466919 2.3251 0.545963 1.43534 1.42425L1.42751 1.43198L1.42027 1.44025L1.20669 1.68447L1.19937 1.69283L1.1927 1.70171C0.462804 2.67273 0.544066 4.05082 1.43533 4.93059L20.2465 23.5L1.43533 42.0694L1.42751 42.0771L1.42027 42.0854L1.20668 42.3296Z" fill="white" stroke="white" stroke-width="0.6"/>
</svg>
